<svg width="130" height="142" viewBox="0 0 130 142" fill="none" xmlns="http://www.w3.org/2000/svg">
<path d="M70.4392 4.01407L122.239 32.7918C124.336 33.9567 125.384 34.5391 126.148 35.3674C126.823 36.1003 127.334 36.9688 127.647 37.9151C128 38.9847 128 40.1839 128 42.5824V99.4022C128 101.801 128 103 127.647 104.07C127.334 105.016 126.823 105.884 126.148 106.617C125.384 107.446 124.336 108.028 122.239 109.193L70.4392 137.971C68.454 139.073 67.4614 139.625 66.4102 139.841C65.4798 140.032 64.5202 140.032 63.5899 139.841C62.5387 139.625 61.546 139.073 59.5608 137.971L7.76081 109.193C5.66413 108.028 4.6158 107.446 3.85243 106.617C3.1771 105.884 2.66603 105.016 2.35339 104.07C2 103 2 101.801 2 99.4022V42.5824C2 40.1839 2 38.9847 2.35339 37.9151C2.66603 36.9688 3.1771 36.1003 3.85243 35.3674C4.6158 34.5391 5.66413 33.9567 7.7608 32.7919L59.5608 4.01407C61.546 2.91116 62.5387 2.35971 63.5899 2.14351C64.5202 1.95216 65.4798 1.95216 66.4102 2.14351C67.4614 2.35971 68.454 2.91116 70.4392 4.01407Z" fill="#B0B0B0"/>
<path d="M124.5 37.9365L64.9998 70.9921M64.9998 70.9921L5.49977 37.9365M64.9998 70.9921L65 137.492M128 99.4022V42.5824C128 40.1839 128 38.9847 127.647 37.9151C127.334 36.9688 126.823 36.1003 126.148 35.3674C125.384 34.5391 124.336 33.9567 122.239 32.7918L70.4392 4.01407C68.454 2.91116 67.4614 2.35971 66.4102 2.14351C65.4798 1.95216 64.5202 1.95216 63.5899 2.14351C62.5387 2.35971 61.546 2.91116 59.5608 4.01407L7.7608 32.7919C5.66413 33.9567 4.6158 34.5391 3.85243 35.3674C3.1771 36.1003 2.66603 36.9688 2.35339 37.9151C2 38.9847 2 40.1839 2 42.5824V99.4022C2 101.801 2 103 2.35339 104.07C2.66603 105.016 3.1771 105.884 3.85243 106.617C4.6158 107.446 5.66413 108.028 7.76081 109.193L59.5608 137.971C61.546 139.073 62.5387 139.625 63.5899 139.841C64.5202 140.032 65.4798 140.032 66.4102 139.841C67.4614 139.625 68.454 139.073 70.4392 137.971L122.239 109.193C124.336 108.028 125.384 107.446 126.148 106.617C126.823 105.884 127.334 105.016 127.647 104.07C128 103 128 101.801 128 99.4022Z" stroke="#1D1D1B" stroke-width="4" stroke-linecap="round" stroke-linejoin="round"/>
</svg>
