<svg width="25" height="24" viewBox="0 0 25 24" fill="none" xmlns="http://www.w3.org/2000/svg">
<path fill-rule="evenodd" clip-rule="evenodd" d="M8.90444 4C8.27325 4 7.76158 4.51167 7.76158 5.14286V5.28571C7.76158 5.838 7.31386 6.28571 6.76158 6.28571H5.47587C4.84468 6.28571 4.33301 6.79739 4.33301 7.42857V18.8571C4.33301 19.4883 4.84468 20 5.47587 20H19.1902C19.8213 20 20.333 19.4883 20.333 18.8571V7.42857C20.333 6.79739 19.8213 6.28571 19.1902 6.28571H17.9044C17.3522 6.28571 16.9044 5.838 16.9044 5.28571V5.14286C16.9044 4.51167 16.3928 4 15.7616 4C15.1304 4 14.6187 4.51167 14.6187 5.14286V5.28571C14.6187 5.838 14.171 6.28571 13.6187 6.28571H11.0473C10.495 6.28571 10.0473 5.838 10.0473 5.28571V5.14286C10.0473 4.51167 9.53562 4 8.90444 4ZM7.61872 11.8571C7.61872 11.3049 8.06644 10.8571 8.61872 10.8571H16.0473C16.5996 10.8571 17.0473 11.3049 17.0473 11.8571V15.7143C17.0473 16.2666 16.5996 16.7143 16.0473 16.7143H8.61872C8.06644 16.7143 7.61872 16.2666 7.61872 15.7143V11.8571Z" fill="black" fill-opacity="0.2"/>
<path d="M17.0473 11.8571C17.0473 11.3049 16.5996 10.8571 16.0473 10.8571H8.61872C8.06644 10.8571 7.61872 11.3049 7.61872 11.8571V15.7143C7.61872 16.2666 8.06644 16.7143 8.61872 16.7143H16.0473C16.5996 16.7143 17.0473 16.2666 17.0473 15.7143V11.8571Z" fill="black"/>
</svg>
