<svg width="226" height="100" viewBox="0 0 226 100" fill="none" xmlns="http://www.w3.org/2000/svg">
<path d="M224.887 4.65328C225.282 3.2543 225.653 1.82556 226 0.366379L225.036 0C224.694 1.43898 224.328 2.84739 223.939 4.22595L224.887 4.65328Z" fill="#B0B0B0"/>
<path d="M218.79 20.6084C220.019 18.1429 221.154 15.5557 222.188 12.8403L221.281 12.2882C220.263 14.9604 219.147 17.5054 217.938 19.9299L218.79 20.6084Z" fill="#B0B0B0"/>
<path d="M209.985 34.4174C211.65 32.3438 213.225 30.1521 214.704 27.8346L213.92 27.0356C212.466 29.3144 210.917 31.4704 209.278 33.5109L209.985 34.4174Z" fill="#B0B0B0"/>
<path d="M199.011 45.4684C200.991 43.8492 202.897 42.1284 204.72 40.2985L204.094 39.3018C202.298 41.1048 200.419 42.8017 198.464 44.3998L199.011 45.4684Z" fill="#B0B0B0"/>
<path d="M186.639 53.823C188.805 52.6173 190.912 51.3311 192.955 49.9577L192.483 48.8341C190.463 50.1918 188.378 51.4644 186.233 52.6584L186.639 53.823Z" fill="#B0B0B0"/>
<path d="M173.479 59.9557C175.741 59.0779 177.96 58.1387 180.129 57.1324L179.783 55.9377C177.631 56.9356 175.43 57.8675 173.184 58.7391L173.479 59.9557Z" fill="#B0B0B0"/>
<path d="M159.943 64.3905C162.243 63.7586 164.512 63.0811 166.745 62.3529L166.494 61.1206C164.274 61.8444 162.018 62.5182 159.729 63.1469L159.943 64.3905Z" fill="#B0B0B0"/>
<path d="M146.189 67.5981C148.511 67.1414 150.812 66.6514 153.086 66.1234L152.905 64.8717C150.639 65.3974 148.348 65.8856 146.034 66.3406L146.189 67.5981Z" fill="#B0B0B0"/>
<path d="M132.317 69.931C134.647 69.5972 136.963 69.24 139.263 68.8553L139.131 67.5937C136.838 67.9772 134.528 68.3334 132.203 68.6664L132.317 69.931Z" fill="#B0B0B0"/>
<path d="M118.415 71.6622C120.741 71.4095 123.06 71.1421 125.37 70.8562L125.271 69.5896C122.967 69.875 120.652 70.1419 118.329 70.3942L118.415 71.6622Z" fill="#B0B0B0"/>
<path d="M104.483 73.0249C106.807 72.8171 109.131 72.6022 111.451 72.3767L111.374 71.1078C109.056 71.3331 106.735 71.5478 104.412 71.7555L104.483 73.0249Z" fill="#B0B0B0"/>
<path d="M90.5512 74.2197L92.4508 74.0596C94.1377 73.9174 95.8272 73.7751 97.518 73.6311L97.4503 72.3613C95.7607 72.5052 94.0725 72.6475 92.3865 72.7895L90.4841 72.9499L90.5512 74.2197Z" fill="#B0B0B0"/>
<path d="M76.6188 75.4423C78.9287 75.2261 81.251 75.0184 83.5826 74.8152L83.5134 73.5456C81.1806 73.7489 78.8565 73.9567 76.5445 74.1731L76.6188 75.4423Z" fill="#B0B0B0"/>
<path d="M62.7267 76.8974C65.0206 76.6248 67.3346 76.3694 69.6651 76.127L69.5826 74.8586C67.2487 75.1014 64.9308 75.3572 62.6324 75.6304L62.7267 76.8974Z" fill="#B0B0B0"/>
<path d="M48.8541 78.8343C51.1365 78.4592 53.4483 78.112 55.7857 77.7879L55.6759 76.5229C53.3326 76.8478 51.0141 77.196 48.7243 77.5723L48.8541 78.8343Z" fill="#B0B0B0"/>
<path d="M35.0816 81.5653C37.3308 81.0298 39.6214 80.5355 41.9491 80.077L41.7941 78.8196C39.457 79.2799 37.1558 79.7764 34.8953 80.3147L35.0816 81.5653Z" fill="#B0B0B0"/>
<path d="M21.5274 85.5265C23.7177 84.7463 25.9659 84.0256 28.2669 83.358L28.0417 82.1177C25.7262 82.7894 23.4619 83.5152 21.2544 84.3016L21.5274 85.5265Z" fill="#B0B0B0"/>
<path d="M8.56235 92.4488C10.6375 91.301 12.667 89.1422 14.8985 88.1572L14.5666 86.9557C12.313 87.9505 10.1597 90.0142 8.05898 91.1762L8.56235 92.4488Z" fill="#B0B0B0"/>
<path d="M0.028222 99.1534C0.0171684 99.1933 0.00918548 99.235 0.00461611 99.278C-0.00350978 99.3531 -0.000750803 99.4279 0.0116566 99.4993C0.0275814 99.592 0.0593717 99.6768 0.103114 99.7492C0.146775 99.8218 0.20306 99.883 0.269558 99.927C0.320686 99.961 0.376898 99.9842 0.436204 99.9942C0.470306 100 0.504334 100.001 0.537827 99.9985L17.6237 99.0214L17.5782 97.7501L1.20627 98.6864L6.25883 78.9788L5.30112 78.5865L0.028222 99.1534Z" fill="#B0B0B0"/>
</svg>
