<svg width="31" height="30" viewBox="0 0 31 30" fill="none" xmlns="http://www.w3.org/2000/svg">
<path d="M17.3 9.375H19.9878C20.2691 9.375 20.4098 9.375 20.5421 9.40608C20.6595 9.43364 20.7716 9.4791 20.8745 9.54078C20.9906 9.61035 21.09 9.70764 21.2889 9.90221L25.9611 14.4728C26.16 14.6674 26.2594 14.7646 26.3305 14.8782C26.3936 14.9788 26.4401 15.0886 26.4682 15.2034C26.5 15.3328 26.5 15.4704 26.5 15.7456V18.9375C26.5 19.4617 26.5 19.7238 26.4125 19.9305C26.2957 20.2062 26.0719 20.4252 25.7901 20.5394V20.5394C25.7604 20.5514 25.7456 20.5574 25.6348 20.5754C25.3276 20.6255 25.0184 20.5315 24.7911 20.3189C24.7091 20.2423 24.5721 20.0401 24.2982 19.6357C23.7834 18.876 22.9015 18.375 21.9 18.375M17.3 9.375V20.625M17.3 9.375C17.3 8.11488 17.3 7.70982 17.0493 7.22852C16.8288 6.80516 16.477 6.46095 16.0442 6.24524C15.5522 6 14.9081 6 13.62 6L7.18 6C5.89188 6 5.24782 6 4.75582 6.24524C4.32305 6.46095 3.97119 6.80516 3.75069 7.22852C3.5 7.70982 3.5 8.33988 3.5 9.6L3.5 18.375C3.5 19.6176 4.52975 20.625 5.8 20.625M19.0825 20.625H17.3M19.0825 20.625C19.1999 20.0593 19.4908 19.5553 19.8985 19.1684M19.0825 20.625C19.165 20.2365 19.4158 19.6467 19.8985 19.1684M17.3 20.625H12.7M12.7 20.625C12.7 22.489 11.1554 24 9.25 24C7.34462 24 5.8 22.489 5.8 20.625M12.7 20.625C12.7 18.761 11.1554 17.25 9.25 17.25C7.34462 17.25 5.8 18.761 5.8 20.625M21.9 18.375C23.4878 18.375 24.775 19.6342 24.775 21.1875C24.775 22.7408 23.4878 24 21.9 24C20.3122 24 19.025 22.7408 19.025 21.1875C19.025 20.3953 19.3598 19.6796 19.8985 19.1684M21.9 18.375C20.9978 18.375 20.3477 18.7235 19.8985 19.1684M21.9 18.375C21.122 18.375 20.4161 18.6773 19.8985 19.1684" stroke="white" stroke-linecap="round" stroke-linejoin="round"/>
</svg>
