<svg width="20" height="20" viewBox="0 0 20 20" fill="none" xmlns="http://www.w3.org/2000/svg">
<path d="M10 5C6.36364 5 3.25818 7.28067 2 10.5C3.25818 13.7193 6.36364 16 10 16C13.6364 16 16.7418 13.7193 18 10.5C16.7418 7.28067 13.6364 5 10 5ZM10 14.1667C7.99273 14.1667 6.36364 12.524 6.36364 10.5C6.36364 8.476 7.99273 6.83333 10 6.83333C12.0073 6.83333 13.6364 8.476 13.6364 10.5C13.6364 12.524 12.0073 14.1667 10 14.1667ZM10 8.3C8.79273 8.3 7.81818 9.28267 7.81818 10.5C7.81818 11.7173 8.79273 12.7 10 12.7C11.2073 12.7 12.1818 11.7173 12.1818 10.5C12.1818 9.28267 11.2073 8.3 10 8.3Z" fill="#B0B0B0"/>
</svg>
