<svg width="29" height="29" viewBox="0 0 29 29" fill="none" xmlns="http://www.w3.org/2000/svg">
<path d="M6.83526 21.7795L5.9287 21.2561H5.9287L6.83526 21.7795ZM7.21842 23.2095L7.74182 22.3029L7.21842 23.2095ZM7.356 20.8776L8.26257 21.401L8.26257 21.401L7.356 20.8776ZM7.24734 19.6248L6.4154 20.2602H6.4154L7.24734 19.6248ZM6.20552 17.8545L7.16507 17.436L7.16507 17.436L6.20552 17.8545ZM6.15349 11.1476L5.18753 10.7442L5.18753 10.7442L6.15349 11.1476ZM7.21962 9.29186L8.05494 9.92276L8.05495 9.92276L7.21962 9.29186ZM7.32433 8.04406L6.41776 8.56746L6.41776 8.56746L7.32433 8.04406ZM6.8347 7.196L7.74127 6.6726V6.6726L6.8347 7.196ZM7.21786 5.76604L6.69446 4.85947V4.85947L7.21786 5.76604ZM9.97937 4.17168L9.45596 3.26512V3.26512L9.97937 4.17168ZM11.4093 4.55484L10.5028 5.07824L10.5028 5.07824L11.4093 4.55484ZM11.906 5.41506L12.8125 4.89165V4.89165L11.906 5.41506ZM13.0331 5.94944L12.9103 4.90985L12.9103 4.90985L13.0331 5.94944ZM15.1387 5.95908L15.2711 4.92068V4.92068L15.1387 5.95908ZM16.2768 5.42627L15.3703 4.90287V4.90287L16.2768 5.42627ZM16.7799 4.55483L17.6865 5.07823V5.07823L16.7799 4.55483ZM18.2099 4.17167L18.7333 3.26511V3.26511L18.2099 4.17167ZM20.9714 5.76603L20.448 6.67259L20.448 6.67259L20.9714 5.76603ZM21.3546 7.19599L20.448 6.67259V6.67259L21.3546 7.19599ZM20.8233 8.11625L21.7298 8.63965V8.63965L20.8233 8.11625ZM20.9212 9.35541L20.0801 9.97856L20.0801 9.97856L20.9212 9.35541ZM21.9398 11.1476L20.9738 11.551L20.9738 11.551L21.9398 11.1476ZM21.8878 17.8545L22.8473 18.2729L22.8473 18.2729L21.8878 17.8545ZM20.8937 19.5617L21.7315 20.1893L21.7315 20.1893L20.8937 19.5617ZM20.7918 20.8058L21.6984 20.2824L20.7918 20.8058ZM21.354 21.7795L22.2606 21.2561L21.354 21.7795ZM20.9709 23.2095L21.4943 24.1161H21.4943L20.9709 23.2095ZM18.2094 24.8039L17.6859 23.8973L18.2094 24.8039ZM16.7794 24.4207L17.6859 23.8973L16.7794 24.4207ZM16.225 23.4605L17.1316 22.9371H17.1316L16.225 23.4605ZM15.0933 22.9267L14.9665 21.8876H14.9665L15.0933 22.9267ZM13.0788 22.936L12.9616 23.9762L12.9616 23.9762L13.0788 22.936ZM11.9581 23.4712L12.8646 23.9946V23.9946L11.9581 23.4712ZM11.4099 24.4207L10.5033 23.8973L10.5033 23.8973L11.4099 24.4207ZM9.97992 24.8038L9.45652 25.7104H9.45652L9.97992 24.8038ZM5.9287 21.2561C5.35056 22.2575 5.69365 23.5379 6.69501 24.1161L7.74182 22.3029L7.74182 22.3029L5.9287 21.2561ZM6.44944 20.3542L5.9287 21.2561L7.74182 22.3029L8.26257 21.401L6.44944 20.3542ZM6.4154 20.2602C6.43815 20.2899 6.44741 20.3198 6.44931 20.3395C6.45018 20.3485 6.44935 20.3535 6.44909 20.3547C6.44896 20.3554 6.4489 20.3554 6.44905 20.355C6.44912 20.3548 6.4492 20.3547 6.44929 20.3545C6.44933 20.3544 6.44937 20.3543 6.4494 20.3542C6.44942 20.3542 6.44944 20.3542 6.44944 20.3542L8.26257 21.401C8.72827 20.5944 8.57979 19.6448 8.07929 18.9894L6.4154 20.2602ZM5.24597 18.2729C5.55639 18.9848 5.95041 19.6513 6.4154 20.2602L8.07929 18.9894C7.71533 18.5129 7.40741 17.9918 7.16507 17.436L5.24597 18.2729ZM5.18121 18.1977C5.1764 18.1977 5.17994 18.1953 5.19377 18.205C5.20974 18.2162 5.23106 18.2387 5.24597 18.2729L7.16507 17.436C6.8403 16.6912 6.09949 16.104 5.18121 16.104V18.1977ZM4.18548 18.1977H5.18121V16.104H4.18548V18.1977ZM2.09186 16.104C2.09186 17.2603 3.02921 18.1977 4.18548 18.1977V16.104H4.18548H2.09186ZM2.09186 12.9153L2.09186 16.104H4.18548V12.9153H2.09186ZM4.18548 10.8217C3.02921 10.8217 2.09186 11.7591 2.09186 12.9153H4.18548V12.9153V10.8217ZM5.12223 10.8217H4.18548V12.9153H5.12223V10.8217ZM5.18753 10.7442C5.17291 10.7792 5.15139 10.8025 5.13509 10.8141C5.12761 10.8195 5.12282 10.8213 5.12157 10.8217C5.12092 10.8219 5.12086 10.8219 5.12128 10.8218C5.12146 10.8218 5.12167 10.8217 5.12188 10.8217C5.12198 10.8217 5.12207 10.8217 5.12213 10.8217C5.12216 10.8217 5.12219 10.8217 5.12221 10.8217C5.12223 10.8217 5.12223 10.8217 5.12223 10.8217V12.9153C6.05428 12.9153 6.80195 12.3113 7.11945 11.551L5.18753 10.7442ZM6.3843 8.66095C5.90333 9.29776 5.49965 9.99682 5.18753 10.7442L7.11945 11.551C7.36308 10.9676 7.6785 10.4212 8.05494 9.92276L6.3843 8.66095ZM6.41776 8.56746C6.41538 8.56333 6.41923 8.56519 6.41766 8.58204C6.41583 8.60153 6.40676 8.63121 6.3843 8.66095L8.05495 9.92276C8.54959 9.26785 8.69425 8.32321 8.23089 7.52065L6.41776 8.56746ZM5.92814 7.71941L6.41776 8.56746L8.23089 7.52065L7.74127 6.6726L5.92814 7.71941ZM6.69446 4.85947C5.69309 5.43761 5.35001 6.71805 5.92814 7.71941L7.74127 6.6726L7.74127 6.6726L6.69446 4.85947ZM9.45596 3.26512L6.69446 4.85947L7.74127 6.6726L10.5028 5.07824L9.45596 3.26512ZM12.3159 4.03143C11.7378 3.03007 10.4573 2.68698 9.45596 3.26512L10.5028 5.07824L10.5028 5.07824L12.3159 4.03143ZM12.8125 4.89165L12.3159 4.03143L10.5028 5.07824L10.9994 5.93846L12.8125 4.89165ZM12.9103 4.90985C12.8732 4.91423 12.843 4.90713 12.8252 4.89891C12.8099 4.8918 12.8102 4.88752 12.8125 4.89165L10.9994 5.93846C11.4606 6.73722 12.345 7.08479 13.1558 6.98902L12.9103 4.90985ZM14.0466 4.84318C13.6626 4.84318 13.2833 4.86579 12.9103 4.90985L13.1558 6.98902C13.4476 6.95456 13.7448 6.93679 14.0466 6.93679V4.84318ZM15.2711 4.92068C14.8697 4.8695 14.461 4.84318 14.0466 4.84318V6.93679C14.3723 6.93679 14.6925 6.95747 15.0064 6.99748L15.2711 4.92068ZM15.3703 4.90287C15.3703 4.90287 15.3703 4.90284 15.3703 4.90279C15.3703 4.90273 15.3704 4.90266 15.3704 4.90258C15.3706 4.90241 15.3707 4.90225 15.3708 4.90211C15.3711 4.90179 15.371 4.90186 15.3705 4.90231C15.3696 4.90318 15.3656 4.90642 15.3573 4.91021C15.3392 4.91846 15.3085 4.92545 15.2711 4.92068L15.0064 6.99748C15.823 7.10159 16.7181 6.75553 17.1834 5.94968L15.3703 4.90287ZM15.8734 4.03142L15.3703 4.90287L17.1834 5.94968L17.6865 5.07823L15.8734 4.03142ZM18.7333 3.26511C17.732 2.68697 16.4515 3.03006 15.8734 4.03142L17.6865 5.07823V5.07823L18.7333 3.26511ZM21.4948 4.85946L18.7333 3.26511L17.6865 5.07823L20.448 6.67259L21.4948 4.85946ZM22.2611 7.7194C22.8393 6.71804 22.4962 5.4376 21.4948 4.85946L20.448 6.67259L20.448 6.67259L22.2611 7.7194ZM21.7298 8.63965L22.2611 7.7194L20.448 6.67259L19.9167 7.59284L21.7298 8.63965ZM21.7623 8.73226C21.7403 8.70259 21.7316 8.67322 21.7299 8.65401C21.7284 8.63738 21.7322 8.63554 21.7298 8.63965L19.9167 7.59284C19.4574 8.3884 19.5955 9.32453 20.0801 9.97856L21.7623 8.73226ZM22.9057 10.7442C22.6052 10.0246 22.2198 9.34982 21.7623 8.73225L20.0801 9.97856C20.4381 10.4619 20.7393 10.9893 20.9738 11.551L22.9057 10.7442ZM22.971 10.8217C22.971 10.8217 22.9711 10.8217 22.9711 10.8217C22.9711 10.8217 22.9711 10.8217 22.9711 10.8217C22.9712 10.8217 22.9713 10.8217 22.9714 10.8217C22.9716 10.8217 22.9718 10.8218 22.972 10.8218C22.9724 10.8219 22.9723 10.8219 22.9717 10.8217C22.9705 10.8213 22.9657 10.8195 22.9582 10.8141C22.9419 10.8025 22.9204 10.7792 22.9057 10.7442L20.9738 11.551C21.2913 12.3113 22.039 12.9153 22.971 12.9153V10.8217ZM24.0748 10.8217H22.971V12.9153H24.0748V10.8217ZM26.1685 12.9153C26.1685 11.7591 25.2311 10.8217 24.0748 10.8217V12.9153H26.1685ZM26.1685 16.104V12.9153H24.0748V16.104H26.1685ZM24.0748 18.1977C25.2311 18.1977 26.1685 17.2603 26.1685 16.104H24.0748V16.104V18.1977ZM22.9121 18.1977H24.0748V16.104H22.9121V18.1977ZM22.8473 18.2729C22.8622 18.2387 22.8835 18.2162 22.8995 18.205C22.9133 18.1953 22.9169 18.1977 22.9121 18.1977V16.104C21.9938 16.104 21.253 16.6912 20.9282 17.436L22.8473 18.2729ZM21.7315 20.1893C22.1732 19.5997 22.5489 18.9572 22.8473 18.2729L20.9282 17.436C20.6952 17.9703 20.4016 18.4725 20.0559 18.934L21.7315 20.1893ZM21.6984 20.2824C21.7008 20.2866 21.697 20.2847 21.6985 20.2679C21.7003 20.2486 21.7092 20.219 21.7315 20.1893L20.0559 18.934C19.5655 19.5886 19.4236 20.5296 19.8853 21.3292L21.6984 20.2824ZM22.2606 21.2561L21.6984 20.2824L19.8853 21.3292L20.4475 22.3029L22.2606 21.2561ZM21.4943 24.1161C22.4956 23.5379 22.8387 22.2575 22.2606 21.2561L20.4475 22.3029L21.4943 24.1161ZM18.7328 25.7104L21.4943 24.1161L20.4475 22.3029L17.6859 23.8973L18.7328 25.7104ZM15.8728 24.9441C16.451 25.9455 17.7314 26.2886 18.7328 25.7104L17.6859 23.8973L17.6859 23.8973L15.8728 24.9441ZM15.3184 23.9839L15.8728 24.9441L17.6859 23.8973L17.1316 22.9371L15.3184 23.9839ZM15.2201 23.9658C15.2573 23.9613 15.2877 23.9684 15.3056 23.9766C15.3211 23.9837 15.3208 23.988 15.3184 23.9839L17.1316 22.9371C16.6687 22.1353 15.7797 21.7884 14.9665 21.8876L15.2201 23.9658ZM14.0466 24.037C14.4435 24.037 14.8351 24.0128 15.2201 23.9658L14.9665 21.8876C14.6654 21.9244 14.3585 21.9434 14.0466 21.9434V24.037ZM12.9616 23.9762C13.3181 24.0164 13.6802 24.037 14.0466 24.037V21.9434C13.7586 21.9434 13.4748 21.9272 13.196 21.8958L12.9616 23.9762ZM12.8646 23.9946C12.8622 23.9988 12.862 23.9945 12.8772 23.9874C12.8948 23.9792 12.9247 23.9721 12.9616 23.9762L13.196 21.8958C12.3885 21.8048 11.5103 22.1532 11.0515 22.9478L12.8646 23.9946ZM12.3165 24.9441L12.8646 23.9946L11.0515 22.9478L10.5033 23.8973L12.3165 24.9441ZM9.45652 25.7104C10.4579 26.2885 11.7383 25.9454 12.3165 24.9441L10.5033 23.8973H10.5033L9.45652 25.7104ZM6.69501 24.1161L9.45652 25.7104L10.5033 23.8973L7.74182 22.3029L6.69501 24.1161ZM16.5817 14.17C16.5817 15.5183 15.4887 16.6113 14.1404 16.6113V18.705C16.645 18.705 18.6753 16.6746 18.6753 14.17H16.5817ZM14.1404 11.7287C15.4887 11.7287 16.5817 12.8217 16.5817 14.17H18.6753C18.6753 11.6654 16.645 9.63506 14.1404 9.63506V11.7287ZM11.699 14.17C11.699 12.8217 12.7921 11.7287 14.1404 11.7287V9.63506C11.6358 9.63506 9.60542 11.6654 9.60542 14.17H11.699ZM14.1404 16.6113C12.7921 16.6113 11.699 15.5183 11.699 14.17H9.60542C9.60542 16.6746 11.6358 18.705 14.1404 18.705V16.6113Z" fill="#B0B0B0"/>
</svg>
