<svg width="24" height="24" viewBox="0 0 24 24" fill="none" xmlns="http://www.w3.org/2000/svg">
<path fill-rule="evenodd" clip-rule="evenodd" d="M7.8 8.09701H6.4C5.6268 8.09701 5 8.69396 5 9.43034V17.4303C5 18.1667 5.6268 18.7637 6.4 18.7637H17.6C18.3732 18.7637 19 18.1667 19 17.4303V9.43034C19 8.69396 18.3732 8.09701 17.6 8.09701H16.2V6.76367C16.2 4.55453 14.3196 2.76367 12 2.76367C9.6804 2.76367 7.8 4.55453 7.8 6.76367V8.09701ZM9.2 8.09701H14.8V6.76367C14.8 5.29091 13.5464 4.09701 12 4.09701C10.4536 4.09701 9.2 5.29091 9.2 6.76367V8.09701ZM9.9 13.4303C9.9 12.3258 10.8402 11.4303 12 11.4303C13.1598 11.4303 14.1 12.3258 14.1 13.4303C14.1 14.5349 13.1598 15.4303 12 15.4303C10.8402 15.4303 9.9 14.5349 9.9 13.4303Z" fill="#B0B0B0"/>
</svg>
