<svg width="156" height="155" viewBox="0 0 156 155" fill="none" xmlns="http://www.w3.org/2000/svg">
<path fill-rule="evenodd" clip-rule="evenodd" d="M78 145.549C115.582 145.549 146.049 115.082 146.049 77.5C146.049 39.9177 115.582 9.45122 78 9.45122C40.4177 9.45122 9.95122 39.9177 9.95122 77.5C9.95122 115.082 40.4177 145.549 78 145.549ZM78 155C120.802 155 155.5 120.302 155.5 77.5C155.5 34.6979 120.802 0 78 0C35.1979 0 0.5 34.6979 0.5 77.5C0.5 120.302 35.1979 155 78 155ZM96.6352 48.432C99.3418 45.7253 103.73 45.7253 106.437 48.432C109.144 51.1387 109.144 55.5271 106.437 58.2338L87.8012 76.8694L106.648 95.716C109.355 98.4227 109.355 102.811 106.648 105.518C103.941 108.224 99.5527 108.224 96.8461 105.518L77.9995 86.6712L59.0976 105.573C56.3909 108.28 52.0025 108.28 49.2958 105.573C46.5891 102.866 46.5891 98.478 49.2958 95.7713L68.1977 76.8694L49.5067 58.1784C46.8 55.4718 46.8 51.0834 49.5067 48.3767C52.2134 45.67 56.6018 45.67 59.3085 48.3767L77.9995 67.0677L96.6352 48.432Z" fill="#F59929"/>
</svg>
