<svg width="156" height="155" viewBox="0 0 156 155" fill="none" xmlns="http://www.w3.org/2000/svg">
<path fill-rule="evenodd" clip-rule="evenodd" d="M146.049 77.5C146.049 115.082 115.582 145.549 78 145.549C40.4177 145.549 9.95122 115.082 9.95122 77.5C9.95122 39.9177 40.4177 9.45122 78 9.45122C115.582 9.45122 146.049 39.9177 146.049 77.5ZM155.5 77.5C155.5 120.302 120.802 155 78 155C35.1979 155 0.5 120.302 0.5 77.5C0.5 34.6979 35.1979 0 78 0C120.802 0 155.5 34.6979 155.5 77.5ZM54.012 117.27C53.0133 119.681 50.2489 120.826 47.8377 119.827C45.4265 118.828 44.2815 116.064 45.2802 113.653C47.0693 109.334 49.6915 105.409 52.9973 102.104C56.303 98.7979 60.2275 96.1756 64.5466 94.3866C68.8657 92.5975 73.495 91.6767 78.17 91.6767C82.845 91.6767 87.4742 92.5975 91.7933 94.3866C96.1125 96.1756 100.037 98.7979 103.343 102.104C106.648 105.409 109.271 109.334 111.06 113.653C112.058 116.064 110.913 118.828 108.502 119.827C106.091 120.826 103.327 119.681 102.328 117.27C101.014 114.097 99.0878 111.215 96.6597 108.787C94.2316 106.359 91.349 104.432 88.1765 103.118C85.0041 101.804 81.6038 101.128 78.17 101.128C74.7361 101.128 71.3359 101.804 68.1634 103.118C64.991 104.432 62.1084 106.359 59.6803 108.787C57.2522 111.215 55.3261 114.097 54.012 117.27ZM34.6015 43.4267C36.2163 41.812 38.8343 41.812 40.449 43.4268L51.6 54.5777L62.7172 43.4605C64.332 41.8457 66.95 41.8457 68.5648 43.4605C70.1795 45.0752 70.1795 47.6933 68.5648 49.308L57.4475 60.4253L68.6907 71.6684C70.3054 73.2832 70.3054 75.9012 68.6907 77.5159C67.0759 79.1307 64.4579 79.1307 62.8432 77.5159L51.6 66.2728L40.3231 77.5497C38.7084 79.1644 36.0903 79.1644 34.4756 77.5497C32.8608 75.9349 32.8608 73.3169 34.4756 71.7021L45.7525 60.4253L34.6015 49.2743C32.9868 47.6595 32.9868 45.0415 34.6015 43.4267ZM94.0064 43.4268C92.3916 41.812 89.7736 41.812 88.1588 43.4267C86.5441 45.0415 86.5441 47.6595 88.1588 49.2743L99.3098 60.4253L88.0329 71.7021C86.4182 73.3169 86.4182 75.9349 88.0329 77.5497C89.6477 79.1644 92.2657 79.1644 93.8804 77.5497L105.157 66.2728L116.4 77.5159C118.015 79.1307 120.633 79.1307 122.248 77.5159C123.863 75.9012 123.863 73.2832 122.248 71.6684L111.005 60.4253L122.122 49.308C123.737 47.6933 123.737 45.0752 122.122 43.4605C120.507 41.8457 117.889 41.8457 116.275 43.4605L105.157 54.5777L94.0064 43.4268Z" fill="#F59929"/>
</svg>
