<svg width="22" height="25" viewBox="0 0 22 25" fill="none" xmlns="http://www.w3.org/2000/svg">
<path fill-rule="evenodd" clip-rule="evenodd" d="M3.75 0.75C3.75 0.335786 3.41421 0 3 0C2.58579 0 2.25 0.335786 2.25 0.75L2.25 3.84451C0.956079 4.17755 0 5.35212 0 6.75C0 8.14788 0.956079 9.32245 2.25 9.65549L2.25 23.75C2.25 24.1642 2.58579 24.5 3 24.5C3.41421 24.5 3.75 24.1642 3.75 23.75L3.75 9.65549C5.04392 9.32246 6 8.14788 6 6.75C6 5.35212 5.04392 4.17755 3.75 3.84451L3.75 0.75ZM11.75 0.75C11.75 0.335786 11.4142 0 11 0C10.5858 0 10.25 0.335786 10.25 0.75L10.25 14.8445C8.95608 15.1775 8 16.3521 8 17.75C8 19.1479 8.95608 20.3225 10.25 20.6555V23.75C10.25 24.1642 10.5858 24.5 11 24.5C11.4142 24.5 11.75 24.1642 11.75 23.75V20.6555C13.0439 20.3225 14 19.1479 14 17.75C14 16.3521 13.0439 15.1775 11.75 14.8445L11.75 0.75ZM19 0C19.4142 0 19.75 0.335786 19.75 0.75V3.84451C21.0439 4.17755 22 5.35212 22 6.75C22 8.14788 21.0439 9.32246 19.75 9.65549L19.75 23.75C19.75 24.1642 19.4142 24.5 19 24.5C18.5858 24.5 18.25 24.1642 18.25 23.75L18.25 9.65549C16.9561 9.32245 16 8.14788 16 6.75C16 5.35212 16.9561 4.17755 18.25 3.84451V0.75C18.25 0.335786 18.5858 0 19 0Z" fill="#F59929"/>
</svg>
