<svg width="20" height="20" viewBox="0 0 20 20" fill="none" xmlns="http://www.w3.org/2000/svg">
<path fill-rule="evenodd" clip-rule="evenodd" d="M11 4.5C11 4.1717 10.9353 3.84661 10.8097 3.54329C10.6841 3.23998 10.4999 2.96438 10.2678 2.73223C10.0356 2.50009 9.76002 2.31594 9.45671 2.1903C9.15339 2.06466 8.8283 2 8.5 2C8.1717 2 7.84661 2.06466 7.54329 2.1903C7.23998 2.31594 6.96438 2.50009 6.73223 2.73223C6.50009 2.96438 6.31594 3.23998 6.1903 3.54329C6.06467 3.84661 6 4.1717 6 4.5V9.75834C5.2273 10.2746 4.63223 11.0183 4.29851 11.8883C3.94644 12.8062 3.9046 13.814 4.17937 14.7578C4.45415 15.7017 5.03043 16.5296 5.82012 17.115C6.60982 17.7004 7.56949 18.0112 8.55244 17.9997C9.5354 17.9882 10.4876 17.6552 11.2634 17.0516C12.0392 16.4479 12.5961 15.6068 12.8488 14.6568C13.1015 13.7068 13.0362 12.7002 12.6628 11.7909C12.3222 10.9613 11.7424 10.2543 11 9.75834V4.5ZM8 11.0003C8 11.3748 7.79415 11.7012 7.48943 11.8726C7.13436 12.0931 6.86112 12.4236 6.71142 12.8139C6.56155 13.2046 6.54373 13.6337 6.66071 14.0355C6.77768 14.4373 7.023 14.7897 7.35917 15.0389C7.69535 15.2881 8.10388 15.4204 8.52233 15.4155C8.94077 15.4106 9.34611 15.2689 9.67638 15.0119C10.0067 14.7549 10.2437 14.3969 10.3513 13.9925C10.4589 13.588 10.431 13.1595 10.2721 12.7724C10.1186 12.3986 9.85102 12.0832 9.50801 11.871C9.2047 11.6993 9 11.3736 9 11.0002V4.5C9 4.43434 8.98707 4.36932 8.96194 4.30866C8.93681 4.248 8.89998 4.19288 8.85355 4.14645C8.80712 4.10002 8.752 4.06319 8.69134 4.03806C8.63068 4.01293 8.56566 4 8.5 4C8.43434 4 8.36932 4.01293 8.30866 4.03806C8.248 4.06319 8.19288 4.10002 8.14645 4.14645C8.10002 4.19288 8.06319 4.248 8.03806 4.30866C8.01293 4.36932 8 4.43434 8 4.5V11.0003ZM12 3.5C11.7239 3.5 11.5 3.72386 11.5 4C11.5 4.27614 11.7239 4.5 12 4.5H14.5C14.7761 4.5 15 4.27614 15 4C15 3.72386 14.7761 3.5 14.5 3.5H12ZM11.5 6C11.5 5.72386 11.7239 5.5 12 5.5H13.5C13.7761 5.5 14 5.72386 14 6C14 6.27614 13.7761 6.5 13.5 6.5H12C11.7239 6.5 11.5 6.27614 11.5 6ZM12 7.5C11.7239 7.5 11.5 7.72386 11.5 8C11.5 8.27614 11.7239 8.5 12 8.5H14.5C14.7761 8.5 15 8.27614 15 8C15 7.72386 14.7761 7.5 14.5 7.5H12Z" fill="#B0B0B0"/>
</svg>
